<?xml version="1.0" encoding="UTF-8" standalone="no"?>
<svg width="450px" height="450px" viewBox="0 0 450 450" version="1.1" xmlns="http://www.w3.org/2000/svg" xmlns:xlink="http://www.w3.org/1999/xlink">
    <!-- Generator: Sketch 3.7.2 (28276) - http://www.bohemiancoding.com/sketch -->
    <title>Artboard 1</title>
    <desc>Created with Sketch.</desc>
    <defs>
        <rect id="path-1" x="0" y="0" width="408" height="408"></rect>
        <circle id="path-3" cx="204" cy="204" r="200"></circle>
    </defs>
    <g id="Page-1" stroke="none" stroke-width="1" fill="none" fill-rule="evenodd">
        <g id="Artboard-1">
            <g id="clock" transform="translate(21.000000, 21.000000)">
                <g id="Page-1">
                    <g id="Artboard-2">
                        <g id="Group">
                            <g id="Oval-8-Clipped">
                                <mask id="mask-2" fill="white">
                                    <use xlink:href="#path-1"></use>
                                </mask>
                                <g id="Rectangle-path"></g>
                                <g id="Oval-8" opacity="0.75" mask="url(#mask-2)" stroke="#383737" stroke-width="8">
                                    <g transform="translate(4.000000, 4.000000)" id="path-1">
                                        <circle cx="200" cy="200" r="200"></circle>
                                    </g>
                                </g>
                                <mask id="mask-4" fill="white">
                                    <use xlink:href="#path-3"></use>
                                </mask>
                                <g id="path-1"></g>
                            </g>
                            <g id="wide-awake" opacity="0.650000036" transform="translate(334.000000, 173.000000)">
                                <g id="Slider_Arousal">
                                    <g id="Wideawake">
                                        <path d="M31.19,61.38 C18.9747384,61.3799832 7.96321886,54.0190042 3.29332529,42.7316346 C-1.37656827,31.4442651 1.21553742,18.4550941 9.86018733,9.82476129 C18.5048372,1.19442847 31.4982869,-1.37614348 42.7779004,3.31245304 C54.0575138,8.00104955 61.4002306,19.0247551 61.38,31.24 C61.3304597,47.8848111 47.8348704,61.3580494 31.19,61.38 L31.19,61.38 L31.19,61.38 Z M31.19,3.49 C15.9050536,3.49003588 3.51108833,15.8751009 3.5000722,31.1600433 C3.48905606,46.4449857 15.8651562,58.847903 31.1500867,58.8699711 C46.4350171,58.8920393 58.8468799,46.5249105 58.88,31.24 C58.8910518,15.9345667 46.4954284,3.51656034 31.19,3.5 L31.19,3.49 L31.19,3.49 Z" id="Shape" fill="#000000"></path>
                                        <circle id="Oval" fill="#FFFFFF" cx="18.82" cy="22.72" r="8.51"></circle>
                                        <path d="M18.82,31.97 C13.7058432,31.97 9.56,27.8241568 9.56,22.71 C9.56,17.5958432 13.7058432,13.45 18.82,13.45 C23.9341568,13.45 28.08,17.5958432 28.08,22.71 C28.0744885,27.8218721 23.9318721,31.9644885 18.82,31.97 L18.82,31.97 L18.82,31.97 Z M18.82,14.97 C14.5342703,14.97 11.06,18.4442703 11.06,22.73 C11.06,27.0157297 14.5342703,30.49 18.82,30.49 C23.1057297,30.49 26.58,27.0157297 26.58,22.73 C26.5826539,20.6692674 25.7665753,18.6918829 24.3112926,17.2328495 C22.85601,15.7738161 20.8807327,14.9526505 18.82,14.95 L18.82,14.97 L18.82,14.97 Z" id="Shape" fill="#101010"></path>
                                        <circle id="Oval" fill="#101010" cx="18.82" cy="22.72" r="3.95"></circle>
                                        <path d="M18.21,47.52 L42.48,47.52" id="Shape" stroke="#000000" stroke-width="3" fill="#000000"></path>
                                        <circle id="Oval" fill="#FFFFFF" cx="43.48" cy="22.72" r="8.51"></circle>
                                        <path d="M43.48,31.97 C38.3658432,31.97 34.22,27.8241568 34.22,22.71 C34.22,17.5958432 38.3658432,13.45 43.48,13.45 C48.5941568,13.45 52.74,17.5958432 52.74,22.71 C52.7344885,27.8218721 48.5918721,31.9644885 43.48,31.97 L43.48,31.97 L43.48,31.97 Z M43.48,14.97 C40.3395552,14.9700104 37.5087205,16.862845 36.3088013,19.7650144 C35.108882,22.6671839 35.7764686,26.0064616 37.9999619,28.2242242 C40.2234552,30.4419869 43.5644446,31.1009538 46.4635078,29.893549 C49.362571,28.6861443 51.2480939,25.8504344 51.24,22.71 C51.2344907,18.4265544 47.7634456,14.9555093 43.48,14.95 L43.48,14.97 L43.48,14.97 Z" id="Shape" fill="#101010"></path>
                                        <circle id="Oval" fill="#101010" cx="43.48" cy="22.72" r="3.95"></circle>
                                    </g>
                                </g>
                            </g>
                            <g id="happy" opacity="0.65" transform="translate(174.000000, 12.000000)">
                                <g id="Affective_Slider_AS_">
                                    <g id="Slider_Pleasure">
                                        <g id="Happy">
                                            <path d="M47.98,19.95 L44.52,19.62 C44.8327419,18.2074446 44.3027352,16.7412108 43.1590847,15.8551047 C42.0154343,14.9689987 40.4632961,14.8219761 39.1736099,15.4775902 C37.8839238,16.1332043 37.0880424,17.4738465 37.13,18.92 L33.67,18.59 C33.7114412,15.8774543 35.2719944,13.417769 37.7084504,12.2247462 C40.1449064,11.0317234 43.0448067,11.3073253 45.2129068,12.937958 C47.381007,14.5685907 48.4502776,17.2782103 47.98,19.95 L47.98,19.95 L47.98,19.95 Z" id="Shape" fill="#000000"></path>
                                            <path d="M52.08,29.83 C52.3211326,37.8047127 48.2043698,45.2790484 41.3354546,49.337643 C34.4665393,53.3962377 25.9334607,53.3962377 19.0645454,49.337643 C12.1956302,45.2790484 8.07886736,37.8047127 8.32,29.83 C17.15,29.57 18.12,29.83 30.2,29.83 L52.08,29.83 L52.08,29.83 L52.08,29.83 Z" id="Shape" fill="#464646"></path>
                                            <rect id="Rectangle-path" fill="#FFFFFF" x="8.31" y="29.83" width="43.42" height="4.92"></rect>
                                            <path d="M30.2,53.13 C17.4545248,52.9980786 7.2200825,42.5757663 7.32,29.83 L7.32,28.83 L53.08,28.83 L53.08,29.83 C53.1799175,42.5757663 42.9454752,52.9980786 30.2,53.13 L30.2,53.13 L30.2,53.13 Z M9.34,30.83 C9.68898405,42.0992675 18.9253302,51.0540124 30.2,51.0540124 C41.4746698,51.0540124 50.711016,42.0992675 51.06,30.83 L9.34,30.83 L9.34,30.83 L9.34,30.83 Z" id="Shape" fill="#000000"></path>
                                            <path d="M10.99,20.05 C10.4051602,16.0136544 13.1876753,12.2619487 17.22,11.65 C21.12,11.21 24.68,14.29 25.14,18.49 L21.68,18.87 C21.7286017,17.4292292 20.9314695,16.092759 19.6406722,15.4508673 C18.3498748,14.8089757 16.8031484,14.9798847 15.6836346,15.888109 C14.5641208,16.7963334 14.0780091,18.2745985 14.44,19.67 L10.99,20.05 L10.99,20.05 Z" id="Shape" fill="#000000"></path>
                                            <path d="M30.2,60.38 C13.5265234,60.38 0.01,46.8634766 0.01,30.19 C0.01,13.5165234 13.5265234,-2.84217094e-14 30.2,0 C46.8734766,2.84217094e-14 60.39,13.5165234 60.39,30.19 C60.3679645,46.8543407 46.8643407,60.3579645 30.2,60.38 L30.2,60.38 L30.2,60.38 Z M30.2,2.49 C14.9072353,2.49 2.51,14.8872353 2.51,30.18 C2.51,45.4727647 14.9072353,57.87 30.2,57.87 C45.4927647,57.87 57.89,45.4727647 57.89,30.18 C57.867957,14.8979946 45.4820123,2.51652309 30.2,2.5 L30.2,2.49 L30.2,2.49 Z" id="Shape" fill="#000000"></path>
                                        </g>
                                    </g>
                                </g>
                            </g>
                            <g id="sad" opacity="0.650000036" transform="translate(174.000000, 335.000000)" fill="#000000">
                                <g id="Affective_Slider_AS_">
                                    <g id="Slider_Pleasure">
                                        <g id="Unhappy">
                                            <path d="M30.19,60.39 C13.5165234,60.39 7.10542736e-15,46.8734766 7.10542736e-15,30.2 C7.10542736e-15,13.5265234 13.5165234,0.01 30.19,0.01 C46.8634766,0.01 60.38,13.5265234 60.38,30.2 C60.3579645,46.8643407 46.8543407,60.3679645 30.19,60.39 L30.19,60.39 L30.19,60.39 Z M30.19,2.5 C14.8972353,2.5 2.5,14.8972353 2.5,30.19 C2.5,45.4827647 14.8972353,57.88 30.19,57.88 C45.4827647,57.88 57.88,45.4827647 57.88,30.19 C57.8579695,14.9063699 45.4736301,2.52203049 30.19,2.5 L30.19,2.5 L30.19,2.5 Z" id="Shape"></path>
                                            <path d="M40.65,49.8 C36.36,42.87 30.09,43.14 27.6,43.58 C23.66,44.27 20.51,46.66 20.11,49.28 L16.11,48.76 C16.76,44.57 21.17,40.95 26.83,39.96 C33.83,38.75 40.26,41.74 44.13,47.96 L40.65,49.8 L40.65,49.8 Z" id="Shape"></path>
                                            <path d="M50.65,18.69 C50.29,18.69 41.75,17.63 36.91,12.95 L38.13,11.5 C42.53,15.75 50.76,16.73 50.84,16.74 L50.65,18.69 L50.65,18.69 Z" id="Shape"></path>
                                            <ellipse id="Oval" cx="41.54" cy="23.16" rx="3.77" ry="4.86"></ellipse>
                                            <ellipse id="Oval" cx="17.37" cy="23.16" rx="3.77" ry="4.86"></ellipse>
                                            <path d="M10.04,19.25 L9.37,17.31 C13.02,16.13 19.29,13.56 20.58,11.73 L22.33,12.88 C20.23,15.88 11.08,18.91 10.04,19.25 L10.04,19.25 L10.04,19.25 Z" id="Shape"></path>
                                        </g>
                                    </g>
                                </g>
                            </g>
                            <g id="tired" opacity="0.650000036" transform="translate(12.000000, 174.000000)" fill="#000000">
                                <g id="Affective_Slider_AS_">
                                    <g id="Slider_Arousal">
                                        <g id="Sleepy">
                                            <path d="M30.19,60.39 C13.5178263,60.3844776 0.00631942996,46.8655098 0.010000736,30.1933355 C0.013682042,13.5211613 13.5311577,0.00816164437 30.2033322,0.0100018401 C46.8755068,0.0118420358 60.3899991,13.5278254 60.39,30.2 C60.3679529,46.8682394 46.8582458,60.3734731 30.19,60.39 L30.19,60.39 L30.19,60.39 Z M30.19,2.5 C14.8998402,2.5055229 2.50816104,14.9031714 2.51000201,30.1933321 C2.51184298,45.4834928 14.9065072,57.878157 30.1966679,57.879998 C45.4868286,57.881839 57.8844771,45.4901598 57.89,30.2 C57.8734657,14.9085664 45.4814336,2.51653427 30.19,2.5 L30.19,2.5 L30.19,2.5 Z" id="Shape"></path>
                                            <path d="M15.33,38.53 L14.21,38.53 C11.88,38.35 9.07,37.53 8.13,35.68 L11.13,34.42 C11.27,34.69 12.42,35.42 14.48,35.54 C15.61,35.62 19.48,35.69 21.57,32.87 L24.3,34.56 C22.0982201,37.2170469 18.77719,38.6868897 15.33,38.53 L15.33,38.53 L15.33,38.53 Z" id="Shape"></path>
                                            <path d="M43.35,38.17 C42.4005227,38.1673723 41.454431,38.0566594 40.53,37.84 C38.4,37.35 35.91,36.13 35.33,34.18 L38.33,33.35 C38.41,33.63 39.38,34.48 41.27,34.92 C42.27,35.16 45.86,35.74 48.27,33.25 L50.54,35.25 C48.6458851,37.1692064 46.0459206,38.225103 43.35,38.17 L43.35,38.17 L43.35,38.17 Z" id="Shape"></path>
                                            <path d="M8.45,30.22 L6.45,29.49 C8.2800374,25.0989257 12.6463349,22.3076853 17.4,22.49 L17.35,24.65 C13.5118875,24.468349 9.96431049,26.6885742 8.45,30.22 L8.45,30.22 L8.45,30.22 Z" id="Shape"></path>
                                            <path d="M51.24,30.11 C47.35,23.77 41.87,25.11 41.64,25.19 L41.12,23.26 C41.19,23.26 48.26,21.41 52.95,29.06 L51.24,30.11 L51.24,30.11 Z" id="Shape"></path>
                                            <ellipse id="Oval" stroke="#000000" cx="31.19" cy="51.99" rx="6.48" ry="2"></ellipse>
                                        </g>
                                    </g>
                                </g>
                            </g>
                        </g>
                    </g>
                </g>
            </g>
        </g>
    </g>
</svg>