<?xml version="1.0" encoding="UTF-8" standalone="no"?>
<svg width="450px" height="450px" viewBox="0 0 450 450" version="1.1" xmlns="http://www.w3.org/2000/svg" xmlns:xlink="http://www.w3.org/1999/xlink">
    <!-- Generator: Sketch 3.7.2 (28276) - http://www.bohemiancoding.com/sketch -->
    <title>Artboard 1</title>
    <desc>Created with Sketch.</desc>
    <defs></defs>
    <g id="Page-1" stroke="none" stroke-width="1" fill="none" fill-rule="evenodd">
        <g id="Artboard-1">
            <g id="dial" transform="translate(197.000000, 29.000000)">
                <g id="Page-1">
                    <g id="Artboard-1">
                        <g id="Group" transform="translate(0.169998, 0.050000)">
                            <g id="Triangle-1" transform="translate(0.000000, -0.000000)">
                                <g id="path-1-link" fill="#000000">
                                    <path d="M27.6658466,0 C27.6658466,0 70.2286978,186.312225 48.9472716,207.848584 C38.558376,218.361929 27.6658454,217.5998 27.6658454,217.5998 C27.6658454,217.5998 17.2769509,219.048885 6.38442162,207.848584 C-14.8970022,185.965848 27.6658466,0 27.6658466,0 L27.6658466,0 Z" id="path-1"></path>
                                </g>
                                <g id="path-1-link" stroke="#5E5B5B" stroke-width="1.5" fill="#C8C5C5">
                                    <path d="M27.6658466,0 C27.6658466,0 70.2286978,186.312225 48.9472716,207.848584 C38.558376,218.361929 27.6658454,217.5998 27.6658454,217.5998 C27.6658454,217.5998 17.2769509,219.048885 6.38442162,207.848584 C-14.8970022,185.965848 27.6658466,0 27.6658466,0 L27.6658466,0 Z" id="path-1"></path>
                                </g>
                            </g>
                            <circle id="Oval-1" stroke="#979797" fill="#3E3E3E" cx="27.8609865" cy="196.004484" r="10.264574"></circle>
                        </g>
                    </g>
                </g>
            </g>
        </g>
    </g>
</svg>