<svg id="Affective_Slider_AS_" data-name="Affective Slider (AS)" xmlns="http://www.w3.org/2000/svg" viewBox="0 0 60.39 60.39"><defs><style>.cls-1{fill:#464646;}.cls-2{fill:#fff;}</style></defs><title>happy</title><g id="Slider_Pleasure" data-name="Slider Pleasure"><g id="Happy"><path d="M816.73,241.25l-3.46-.33a3.74,3.74,0,1,0-7.39-.7l-3.46-.33A7.21,7.21,0,1,1,816.73,241.25Z" transform="translate(-768.75 -221.3)"/><path class="cls-1" d="M820.83,251.13a21.89,21.89,0,1,1-43.76,0c8.83-.26,9.8,0,21.88,0h21.88Z" transform="translate(-768.75 -221.3)"/><rect class="cls-2" x="8.31" y="29.83" width="43.42" height="4.92"/><path d="M798.95,274.43a23.12,23.12,0,0,1-22.88-23.3v-1h45.76v1A23.12,23.12,0,0,1,798.95,274.43Zm-20.86-22.3a20.87,20.87,0,0,0,41.72,0H778.09Z" transform="translate(-768.75 -221.3)"/><path d="M779.74,241.35a7.42,7.42,0,0,1,6.23-8.4c3.9-.44,7.46,2.64,7.92,6.84l-3.46.38a3.68,3.68,0,1,0-7.24.8Z" transform="translate(-768.75 -221.3)"/><path d="M798.95,281.68a30.19,30.19,0,1,1,30.19-30.19A30.23,30.23,0,0,1,798.95,281.68Zm0-57.89a27.69,27.69,0,1,0,27.69,27.69A27.72,27.72,0,0,0,798.95,223.8Z" transform="translate(-768.75 -221.3)"/></g></g></svg>