<?xml version="1.0" encoding="UTF-8" standalone="no"?>
<svg width="80px" height="58px" viewBox="0 0 80 58" version="1.1" xmlns="http://www.w3.org/2000/svg" xmlns:xlink="http://www.w3.org/1999/xlink">
    <!-- Generator: Sketch 3.7.2 (28276) - http://www.bohemiancoding.com/sketch -->
    <title>Group</title>
    <desc>Created with Sketch.</desc>
    <defs></defs>
    <g id="Page-1" stroke="none" stroke-width="1" fill="none" fill-rule="evenodd" fill-opacity="0.840000033">
        <g id="Group">
            <path d="M60,57.9901277 C71.045695,57.9901277 80,49.0329194 80,37.9901277 C80,27.0538552 73.5433807,19.5368309 71.4590244,15.4117537 C70.5938837,13.6995837 68.7336375,11.120586 67.9247913,8.26001358 C66.7849099,4.22869886 66.8301125,0 66.8301125,0 C66.8301125,0 55.0128429,6.14031219 48.782902,14.3324232 C42.5529611,22.5245342 40,30.0183489 40,37.9901277 C40,45.9619064 48.954305,57.9901277 60,57.9901277 Z" id="Oval-1-Copy-9" fill="#FC2A24"></path>
            <path d="M20,57.9901277 C31.045695,57.9901277 40,49.0329194 40,37.9901277 C40,27.0538552 33.5433807,19.5368309 31.4590244,15.4117537 C30.5938837,13.6995837 28.7336375,11.120586 27.9247913,8.26001358 C26.7849099,4.22869886 26.8301125,0 26.8301125,0 C26.8301125,0 15.0128429,6.14031219 8.78290203,14.3324232 C2.55296111,22.5245342 8.4284756e-09,30.0183489 5.20417043e-17,37.9901277 C-8.4284757e-09,45.9619064 8.954305,57.9901277 20,57.9901277 Z" id="Oval-1-Copy-7" fill="#80B2C1"></path>
            <path d="M40,57.9901277 C51.045695,57.9901277 60,49.0329194 60,37.9901277 C60,27.0538552 53.5433807,19.5368309 51.4590244,15.4117537 C50.5938837,13.6995837 48.7336375,11.120586 47.9247913,8.26001358 C46.7849099,4.22869886 46.8301125,0 46.8301125,0 C46.8301125,0 35.0128429,6.14031219 28.782902,14.3324232 C22.5529611,22.5245342 20,30.0183489 20,37.9901277 C20,45.9619064 28.954305,57.9901277 40,57.9901277 Z" id="Oval-1-Copy-14" fill="#C86B90"></path>
        </g>
    </g>
</svg>