<svg id="Affective_Slider_AS_" data-name="Affective Slider (AS)" xmlns="http://www.w3.org/2000/svg" viewBox="0 0 60.39 60.39"><title>sad</title><g id="Slider_Pleasure" data-name="Slider Pleasure"><g id="Unhappy"><path d="M67.54,280.33a30.19,30.19,0,1,1,30.19-30.19A30.23,30.23,0,0,1,67.54,280.33Zm0-57.89a27.69,27.69,0,1,0,27.69,27.69A27.73,27.73,0,0,0,67.54,222.44Z" transform="translate(-37.35 -219.94)"/><path d="M78,269.74c-4.29-6.93-10.56-6.66-13.05-6.22-3.94.69-7.09,3.08-7.49,5.7l-4-.52c0.65-4.19,5.06-7.81,10.72-8.8,7-1.21,13.43,1.78,17.3,8Z" transform="translate(-37.35 -219.94)"/><path d="M88,238.63c-0.36,0-8.9-1.06-13.74-5.74l1.22-1.45c4.4,4.25,12.63,5.23,12.71,5.24Z" transform="translate(-37.35 -219.94)"/><ellipse cx="41.54" cy="23.16" rx="3.77" ry="4.86"/><ellipse cx="17.37" cy="23.16" rx="3.77" ry="4.86"/><path d="M47.39,239.19l-0.67-1.94c3.65-1.18,9.92-3.75,11.21-5.58l1.75,1.15C57.58,235.82,48.43,238.85,47.39,239.19Z" transform="translate(-37.35 -219.94)"/></g></g></svg>