<svg id="Affective_Slider_AS_" data-name="Affective Slider (AS)" xmlns="http://www.w3.org/2000/svg" viewBox="0 0 60.39 60.39"><defs><style>.cls-1{stroke:#000;stroke-miterlimit:10;}</style></defs><title>tired</title><g id="Slider_Arousal" data-name="Slider Arousal"><g id="Sleepy"><path d="M67.54,110.55A30.19,30.19,0,1,1,97.74,80.36,30.23,30.23,0,0,1,67.54,110.55Zm0-57.89A27.69,27.69,0,1,0,95.24,80.36,27.73,27.73,0,0,0,67.54,52.66Z" transform="translate(-37.35 -50.16)"/><path d="M52.68,88.69q-0.56,0-1.12,0c-2.33-.18-5.14-1-6.08-2.85l3-1.26c0.14,0.27,1.29,1,3.35,1.12,1.13,0.08,5,.15,7.09-2.67l2.73,1.69A11,11,0,0,1,52.68,88.69Z" transform="translate(-37.35 -50.16)"/><path d="M80.7,88.33A12.51,12.51,0,0,1,77.88,88c-2.13-.49-4.62-1.71-5.2-3.66l3-.83c0.08,0.28,1.05,1.13,2.94,1.57,1,0.24,4.59.82,7-1.67l2.27,2A9.82,9.82,0,0,1,80.7,88.33Z" transform="translate(-37.35 -50.16)"/><path d="M45.8,80.38l-2-.73a11.39,11.39,0,0,1,10.95-7l-0.05,2.16A9.21,9.21,0,0,0,45.8,80.38Z" transform="translate(-37.35 -50.16)"/><path d="M88.59,80.27c-3.89-6.34-9.37-5-9.6-4.92l-0.52-1.93c0.07,0,7.14-1.85,11.83,5.8Z" transform="translate(-37.35 -50.16)"/><ellipse class="cls-1" cx="31.19" cy="51.99" rx="6.48" ry="2"/></g></g></svg>