<svg id="Affective_Slider_AS_" data-name="Affective Slider (AS)" xmlns="http://www.w3.org/2000/svg" viewBox="0 0 60.39 60.39"><defs><style>.cls-1{fill:#fff;}.cls-2{fill:#101010;}.cls-3{stroke:#000;stroke-miterlimit:10;stroke-width:3px;}</style></defs><title>wide-awake</title><g id="Slider_Arousal" data-name="Slider Arousal"><g id="Wideawake"><path d="M798.95,112.14A30.19,30.19,0,1,1,829.14,82,30.23,30.23,0,0,1,798.95,112.14Zm0-57.89A27.69,27.69,0,1,0,826.64,82,27.72,27.72,0,0,0,798.95,54.26Z" transform="translate(-768.76 -51.76)"/><circle class="cls-1" cx="17.82" cy="21.72" r="8.51"/><path class="cls-2" d="M786.58,82.73a9.26,9.26,0,1,1,9.26-9.26A9.27,9.27,0,0,1,786.58,82.73Zm0-17a7.76,7.76,0,1,0,7.76,7.76A7.77,7.77,0,0,0,786.58,65.71Z" transform="translate(-768.76 -51.76)"/><circle class="cls-2" cx="17.82" cy="21.72" r="3.95"/><line class="cls-3" x1="17.21" y1="46.52" x2="41.48" y2="46.52"/><circle class="cls-1" cx="42.48" cy="21.72" r="8.51"/><path class="cls-2" d="M811.24,82.73a9.26,9.26,0,1,1,9.26-9.26A9.27,9.27,0,0,1,811.24,82.73Zm0-17A7.76,7.76,0,1,0,819,73.47,7.77,7.77,0,0,0,811.24,65.71Z" transform="translate(-768.76 -51.76)"/><circle class="cls-2" cx="42.48" cy="21.72" r="3.95"/></g></g></svg>